<?xml version="1.0" encoding="UTF-8" standalone="no"?>
<!DOCTYPE svg PUBLIC "-//W3C//DTD SVG 1.1//EN" "http://www.w3.org/Graphics/SVG/1.1/DTD/svg11.dtd">
<svg xmlns="http://www.w3.org/2000/svg" version="1.1" viewBox="0.00 0.00 1699.00 348.00" width="1699.00" height="348.00">
<g stroke-width="2.10" fill="none" stroke-linecap="butt">
<path stroke="#849aa9" vector-effect="non-scaling-stroke" d="
  M 713.71 61.45
  A 0.46 0.46 0.0 0 0 713.25 60.99
  L 708.41 60.99
  A 0.46 0.46 0.0 0 0 707.95 61.45
  L 707.95 278.81
  A 0.46 0.46 0.0 0 0 708.41 279.27
  L 713.25 279.27
  A 0.46 0.46 0.0 0 0 713.71 278.81
  L 713.71 61.45"
/>
<path stroke="#849aa9" vector-effect="non-scaling-stroke" d="
  M 83.23 123.71
  A 0.32 0.31 -11.2 0 0 83.52 123.90
  Q 138.35 123.92 157.76 123.89
  C 165.75 123.88 173.35 124.53 180.20 127.62
  Q 196.14 134.79 202.90 151.27
  C 212.76 175.28 203.17 207.21 175.92 215.20
  Q 169.33 217.13 164.30 217.14
  Q 111.82 217.31 83.19 217.18
  A 0.29 0.29 0.0 0 0 82.95 217.62
  Q 99.16 243.29 127.73 254.09
  C 154.24 264.12 185.69 262.08 210.28 248.21
  C 238.85 232.08 256.02 202.85 255.91 170.02
  C 255.72 115.91 210.41 78.05 158.01 80.89
  Q 135.75 82.09 116.98 92.10
  Q 96.81 102.85 83.33 123.28
  Q 83.16 123.53 83.23 123.71"
/>
<path stroke="#849aa9" vector-effect="non-scaling-stroke" d="
  M 271.48 256.94
  L 318.36 256.94
  A 0.30 0.30 0.0 0 0 318.66 256.64
  L 318.66 124.72
  A 0.36 0.36 0.0 0 1 319.02 124.36
  Q 329.94 124.33 340.99 124.37
  C 356.72 124.43 370.32 131.16 368.83 149.23
  Q 367.83 161.39 356.36 166.99
  C 348.70 170.73 338.89 170.18 330.30 169.99
  A 0.67 0.67 0.0 0 0 329.61 170.66
  L 329.61 206.91
  A 0.60 0.60 0.0 0 0 330.20 207.51
  Q 341.69 207.81 351.95 207.14
  C 391.65 204.53 420.37 179.48 416.32 137.70
  Q 414.17 115.50 398.71 101.50
  C 384.07 88.24 363.44 84.14 344.24 84.12
  Q 321.55 84.10 271.38 84.11
  A 0.59 0.59 0.0 0 0 270.79 84.70
  L 270.79 256.25
  A 0.69 0.69 0.0 0 0 271.48 256.94"
/>
<path stroke="#849aa9" vector-effect="non-scaling-stroke" d="
  M 478.58 256.93
  A 0.32 0.32 0.0 0 0 478.90 256.61
  L 478.90 158.97
  A 0.32 0.32 0.0 0 1 479.49 158.79
  L 523.08 225.70
  A 0.32 0.32 0.0 0 0 523.62 225.70
  L 567.46 158.57
  A 0.32 0.32 0.0 0 1 568.05 158.75
  L 568.05 256.61
  A 0.32 0.32 0.0 0 0 568.37 256.93
  L 615.38 256.93
  A 0.32 0.32 0.0 0 0 615.70 256.61
  L 615.70 84.43
  A 0.32 0.32 0.0 0 0 615.38 84.11
  L 565.25 84.11
  A 0.32 0.32 0.0 0 0 564.98 84.26
  L 524.12 150.57
  A 0.32 0.32 0.0 0 1 523.58 150.57
  L 482.72 84.26
  A 0.32 0.32 0.0 0 0 482.45 84.11
  L 432.33 84.11
  A 0.32 0.32 0.0 0 0 432.01 84.43
  L 432.01 256.61
  A 0.32 0.32 0.0 0 0 432.33 256.93
  L 478.58 256.93"
/>
<path stroke="#cc8e90" vector-effect="non-scaling-stroke" d="
  M 1033.65 135.84
  L 1033.65 107.24
  A 0.91 0.90 -78.9 0 0 1033.09 106.40
  Q 1007.45 95.91 979.76 98.27
  C 951.77 100.67 933.32 120.94 936.33 149.54
  C 939.39 178.65 967.54 182.93 991.33 188.17
  C 994.27 188.82 998.87 190.22 1001.18 191.82
  Q 1005.38 194.73 1005.83 196.22
  C 1010.46 211.55 995.43 216.27 984.00 217.06
  C 967.30 218.21 951.37 214.38 936.27 207.01
  A 0.44 0.44 0.0 0 0 935.64 207.41
  L 935.64 235.82
  A 0.95 0.95 0.0 0 0 936.13 236.65
  C 952.42 245.49 972.87 247.60 991.41 245.70
  C 1010.51 243.75 1028.78 236.68 1036.78 218.47
  C 1040.36 210.31 1041.26 200.12 1039.87 191.63
  C 1035.26 163.37 1008.16 159.88 984.62 154.46
  C 977.89 152.91 970.45 149.70 969.76 141.67
  C 968.82 130.69 978.32 126.98 987.44 126.64
  C 1003.36 126.04 1018.19 130.02 1033.07 136.23
  A 0.42 0.42 0.0 0 0 1033.65 135.84"
/>
<path stroke="#cc8e90" vector-effect="non-scaling-stroke" d="
  M 1622.15 135.85
  L 1622.14 107.25
  A 0.91 0.90 -78.9 0 0 1621.58 106.41
  Q 1595.94 95.93 1568.25 98.30
  C 1540.26 100.71 1521.82 120.98 1524.84 149.58
  C 1527.90 178.69 1556.05 182.96 1579.85 188.19
  C 1582.79 188.84 1587.39 190.24 1589.70 191.84
  Q 1593.90 194.75 1594.35 196.24
  C 1598.98 211.57 1583.95 216.29 1572.52 217.09
  C 1555.82 218.24 1539.89 214.41 1524.79 207.05
  A 0.44 0.44 0.0 0 0 1524.16 207.45
  L 1524.17 235.86
  A 0.95 0.95 0.0 0 0 1524.66 236.69
  C 1540.95 245.52 1561.40 247.63 1579.94 245.72
  C 1599.04 243.77 1617.31 236.69 1625.30 218.48
  C 1628.88 210.32 1629.78 200.13 1628.39 191.64
  C 1623.77 163.38 1596.67 159.90 1573.13 154.49
  C 1566.40 152.94 1558.96 149.73 1558.26 141.70
  C 1557.32 130.72 1566.82 127.01 1575.94 126.67
  C 1591.86 126.06 1606.69 130.04 1621.57 136.24
  A 0.42 0.42 0.0 0 0 1622.15 135.85"
/>
<path stroke="#cc8e90" vector-effect="non-scaling-stroke" d="
  M 1248.31 172.45
  C 1248.53 215.38 1273.92 246.51 1318.77 246.29
  C 1363.63 246.07 1388.71 214.69 1388.50 171.76
  C 1388.29 128.83 1362.89 97.70 1318.04 97.92
  C 1273.19 98.14 1248.10 129.52 1248.31 172.45"
/>
<path stroke="#cc8e90" vector-effect="non-scaling-stroke" d="
  M 860.83 246.31
  C 888.32 246.32 912.94 235.13 919.62 206.02
  Q 921.67 197.09 921.67 186.75
  Q 921.70 158.62 921.72 100.86
  A 0.43 0.43 0.0 0 0 921.29 100.43
  L 889.42 100.43
  A 0.40 0.40 0.0 0 0 889.02 100.83
  Q 889.00 176.32 888.99 182.50
  C 888.95 202.32 883.12 217.24 860.84 217.23
  C 838.56 217.22 832.75 202.30 832.73 182.47
  Q 832.72 176.29 832.77 100.80
  A 0.40 0.40 0.0 0 0 832.37 100.40
  L 800.50 100.38
  A 0.43 0.43 0.0 0 0 800.07 100.81
  Q 800.03 158.57 800.04 186.70
  Q 800.03 197.04 802.07 205.96
  C 808.73 235.08 833.33 246.30 860.83 246.31"
/>
<path stroke="#cc8e90" vector-effect="non-scaling-stroke" d="
  M 1112.96 209.32
  Q 1133.87 209.31 1135.30 209.32
  A 0.43 0.42 78.5 0 1 1135.69 209.59
  L 1149.15 243.32
  A 0.74 0.73 -10.3 0 0 1149.84 243.79
  L 1183.93 243.79
  A 0.26 0.26 0.0 0 0 1184.17 243.43
  L 1127.37 101.10
  A 0.88 0.88 0.0 0 0 1126.65 100.55
  Q 1125.50 100.40 1112.92 100.41
  Q 1100.33 100.41 1099.18 100.56
  A 0.88 0.88 0.0 0 0 1098.46 101.11
  L 1041.77 243.49
  A 0.26 0.26 0.0 0 0 1042.01 243.85
  L 1076.10 243.82
  A 0.74 0.73 10.3 0 0 1076.79 243.35
  L 1090.23 209.61
  A 0.43 0.42 -78.6 0 1 1090.62 209.34
  Q 1092.04 209.33 1112.96 209.32"
/>
<path stroke="#cc8e90" vector-effect="non-scaling-stroke" d="
  M 1498.24 167.80
  Q 1506.16 161.05 1508.93 151.39
  C 1515.74 127.66 1499.86 107.93 1477.33 102.63
  Q 1467.87 100.40 1454.50 100.41
  Q 1406.67 100.41 1404.22 100.41
  A 0.33 0.33 0.0 0 0 1403.89 100.74
  L 1403.89 243.44
  A 0.34 0.34 0.0 0 0 1404.23 243.78
  Q 1439.11 243.88 1454.50 243.74
  C 1472.09 243.57 1488.72 240.74 1501.77 229.74
  Q 1516.62 217.22 1516.41 197.27
  Q 1516.25 182.21 1502.89 171.55
  Q 1502.59 171.31 1498.27 168.42
  A 0.39 0.39 0.0 0 1 1498.24 167.80"
/>
<path stroke="#cc8e90" vector-effect="non-scaling-stroke" d="
  M 1232.30 100.76
  L 1199.57 100.76
  A 0.33 0.32 -90.0 0 0 1199.25 101.09
  Q 1199.26 137.82 1199.24 234.75
  C 1199.24 241.41 1199.81 247.26 1197.92 253.61
  C 1195.17 262.80 1185.87 263.68 1177.81 262.13
  A 0.66 0.65 5.5 0 0 1177.03 262.77
  L 1177.03 289.12
  A 0.48 0.48 0.0 0 0 1177.41 289.59
  Q 1189.73 292.38 1202.23 289.98
  C 1218.43 286.87 1227.45 276.45 1230.83 261.02
  Q 1232.60 253.01 1232.60 248.00
  Q 1232.60 146.91 1232.59 101.06
  A 0.30 0.29 90.0 0 0 1232.30 100.76"
/>
<path stroke="#cc8e90" vector-effect="non-scaling-stroke" d="
  M 1641.35 114.04
  A 6.32 6.32 0.0 0 0 1635.03 107.72
  A 6.32 6.32 0.0 0 0 1628.71 114.04
  A 6.32 6.32 0.0 0 0 1635.03 120.36
  A 6.32 6.32 0.0 0 0 1641.35 114.04"
/>
<path stroke="#80cfe8" vector-effect="non-scaling-stroke" d="
  M 133.28 134.74
  L 77.58 134.89
  A 0.61 0.60 11.6 0 0 77.02 135.25
  Q 70.91 149.51 70.13 164.81
  A 0.28 0.27 -88.2 0 0 70.40 165.11
  L 118.33 164.98
  A 0.70 0.69 -86.4 0 0 119.01 164.37
  Q 121.05 147.03 133.44 135.12
  A 0.22 0.22 0.0 0 0 133.28 134.74"
/>
<path stroke="#e8989c" vector-effect="non-scaling-stroke" d="
  M 133.61 206.31
  A 0.22 0.22 0.0 0 0 133.77 205.93
  Q 121.28 193.98 119.18 176.55
  A 0.70 0.70 0.0 0 0 118.49 175.94
  L 70.29 175.94
  A 0.28 0.27 88.0 0 0 70.02 176.24
  Q 70.85 191.63 77.03 205.95
  A 0.62 0.61 -11.8 0 0 77.59 206.31
  L 133.61 206.31"
/>
<path stroke="#cc8e90" vector-effect="non-scaling-stroke" d="
  M 1281.57 171.97
  C 1281.68 195.29 1292.09 217.25 1318.57 217.13
  C 1345.04 217.01 1355.26 194.95 1355.15 171.63
  C 1355.05 148.32 1344.63 126.35 1318.16 126.47
  C 1291.68 126.59 1281.47 148.65 1281.57 171.97"
/>
<path stroke="#cc8e90" vector-effect="non-scaling-stroke" d="
  M 1113.26 180.29
  Q 1121.28 180.30 1124.45 180.24
  A 0.27 0.27 0.0 0 0 1124.69 179.88
  Q 1118.26 163.26 1113.52 149.44
  Q 1113.47 149.28 1113.29 149.28
  Q 1113.12 149.28 1113.06 149.44
  Q 1108.30 163.25 1101.83 179.86
  A 0.27 0.27 0.0 0 0 1102.08 180.22
  Q 1105.25 180.28 1113.26 180.29"
/>
<path stroke="#cc8e90" vector-effect="non-scaling-stroke" d="
  M 1436.74 129.59
  L 1436.84 155.81
  A 0.29 0.29 0.0 0 0 1437.13 156.10
  L 1461.34 156.01
  A 15.08 11.91 -0.2 0 0 1476.38 144.05
  L 1476.36 141.07
  A 15.08 11.91 -0.2 0 0 1461.24 129.21
  L 1437.03 129.30
  A 0.29 0.29 0.0 0 0 1436.74 129.59"
/>
<path stroke="#cc8e90" vector-effect="non-scaling-stroke" d="
  M 1436.78 185.44
  L 1436.78 214.54
  A 0.60 0.60 0.0 0 0 1437.38 215.14
  C 1449.58 215.24 1477.81 216.87 1481.49 203.56
  C 1483.86 194.98 1479.94 187.98 1470.92 186.05
  Q 1465.21 184.83 1457.50 184.80
  Q 1448.98 184.77 1437.45 184.78
  A 0.67 0.66 0.0 0 0 1436.78 185.44"
/>
<path stroke="#cc8e90" vector-effect="non-scaling-stroke" d="
  M 1634.8952 109.3001
  A 4.82 4.62 -89.7 0 0 1630.2501 114.0958
  A 4.82 4.62 -89.7 0 0 1634.8448 118.9399
  A 4.82 4.62 -89.7 0 0 1639.4899 114.1442
  A 4.82 4.62 -89.7 0 0 1634.8952 109.3001"
/>
<path stroke="#cc8e90" vector-effect="non-scaling-stroke" d="
  M 1634.86 115.36
  Q 1635.76 117.02 1636.87 117.03
  A 0.48 0.47 74.0 0 0 1637.27 116.30
  L 1636.56 115.21
  A 0.82 0.82 0.0 0 1 1636.82 114.06
  Q 1637.98 113.38 1637.79 112.51
  C 1637.35 110.38 1634.57 110.69 1632.95 110.94
  A 0.70 0.70 0.0 0 0 1632.35 111.63
  L 1632.35 116.26
  A 0.74 0.73 -90.0 0 0 1633.08 117.00
  L 1633.62 117.00
  A 0.59 0.59 0.0 0 0 1634.20 116.25
  Q 1634.02 115.62 1634.14 115.38
  A 0.40 0.40 0.0 0 1 1634.86 115.36"
/>
<path stroke="#cc8e90" vector-effect="non-scaling-stroke" d="
  M 1635.25 112.10
  Q 1634.69 111.92 1634.44 112.02
  A 0.89 0.73 51.6 0 0 1634.42 113.40
  Q 1634.98 113.89 1635.50 113.23
  A 0.75 0.66 -61.3 0 0 1635.25 112.10"
/>
</g>
<path fill="#ffffff" d="
  M 1697.22 0.00
  L 1697.22 348.00
  L 1.82 348.00
  Q 1.76 273.49 1.79 198.99
  Q 1.80 163.34 3.00 153.06
  C 9.16 100.05 39.77 53.06 85.36 25.10
  Q 123.39 1.79 170.00 0.00
  L 1697.22 0.00
  Z
  M 713.71 61.45
  A 0.46 0.46 0.0 0 0 713.25 60.99
  L 708.41 60.99
  A 0.46 0.46 0.0 0 0 707.95 61.45
  L 707.95 278.81
  A 0.46 0.46 0.0 0 0 708.41 279.27
  L 713.25 279.27
  A 0.46 0.46 0.0 0 0 713.71 278.81
  L 713.71 61.45
  Z
  M 83.23 123.71
  A 0.32 0.31 -11.2 0 0 83.52 123.90
  Q 138.35 123.92 157.76 123.89
  C 165.75 123.88 173.35 124.53 180.20 127.62
  Q 196.14 134.79 202.90 151.27
  C 212.76 175.28 203.17 207.21 175.92 215.20
  Q 169.33 217.13 164.30 217.14
  Q 111.82 217.31 83.19 217.18
  A 0.29 0.29 0.0 0 0 82.95 217.62
  Q 99.16 243.29 127.73 254.09
  C 154.24 264.12 185.69 262.08 210.28 248.21
  C 238.85 232.08 256.02 202.85 255.91 170.02
  C 255.72 115.91 210.41 78.05 158.01 80.89
  Q 135.75 82.09 116.98 92.10
  Q 96.81 102.85 83.33 123.28
  Q 83.16 123.53 83.23 123.71
  Z
  M 271.48 256.94
  L 318.36 256.94
  A 0.30 0.30 0.0 0 0 318.66 256.64
  L 318.66 124.72
  A 0.36 0.36 0.0 0 1 319.02 124.36
  Q 329.94 124.33 340.99 124.37
  C 356.72 124.43 370.32 131.16 368.83 149.23
  Q 367.83 161.39 356.36 166.99
  C 348.70 170.73 338.89 170.18 330.30 169.99
  A 0.67 0.67 0.0 0 0 329.61 170.66
  L 329.61 206.91
  A 0.60 0.60 0.0 0 0 330.20 207.51
  Q 341.69 207.81 351.95 207.14
  C 391.65 204.53 420.37 179.48 416.32 137.70
  Q 414.17 115.50 398.71 101.50
  C 384.07 88.24 363.44 84.14 344.24 84.12
  Q 321.55 84.10 271.38 84.11
  A 0.59 0.59 0.0 0 0 270.79 84.70
  L 270.79 256.25
  A 0.69 0.69 0.0 0 0 271.48 256.94
  Z
  M 478.58 256.93
  A 0.32 0.32 0.0 0 0 478.90 256.61
  L 478.90 158.97
  A 0.32 0.32 0.0 0 1 479.49 158.79
  L 523.08 225.70
  A 0.32 0.32 0.0 0 0 523.62 225.70
  L 567.46 158.57
  A 0.32 0.32 0.0 0 1 568.05 158.75
  L 568.05 256.61
  A 0.32 0.32 0.0 0 0 568.37 256.93
  L 615.38 256.93
  A 0.32 0.32 0.0 0 0 615.70 256.61
  L 615.70 84.43
  A 0.32 0.32 0.0 0 0 615.38 84.11
  L 565.25 84.11
  A 0.32 0.32 0.0 0 0 564.98 84.26
  L 524.12 150.57
  A 0.32 0.32 0.0 0 1 523.58 150.57
  L 482.72 84.26
  A 0.32 0.32 0.0 0 0 482.45 84.11
  L 432.33 84.11
  A 0.32 0.32 0.0 0 0 432.01 84.43
  L 432.01 256.61
  A 0.32 0.32 0.0 0 0 432.33 256.93
  L 478.58 256.93
  Z
  M 1033.65 135.84
  L 1033.65 107.24
  A 0.91 0.90 -78.9 0 0 1033.09 106.40
  Q 1007.45 95.91 979.76 98.27
  C 951.77 100.67 933.32 120.94 936.33 149.54
  C 939.39 178.65 967.54 182.93 991.33 188.17
  C 994.27 188.82 998.87 190.22 1001.18 191.82
  Q 1005.38 194.73 1005.83 196.22
  C 1010.46 211.55 995.43 216.27 984.00 217.06
  C 967.30 218.21 951.37 214.38 936.27 207.01
  A 0.44 0.44 0.0 0 0 935.64 207.41
  L 935.64 235.82
  A 0.95 0.95 0.0 0 0 936.13 236.65
  C 952.42 245.49 972.87 247.60 991.41 245.70
  C 1010.51 243.75 1028.78 236.68 1036.78 218.47
  C 1040.36 210.31 1041.26 200.12 1039.87 191.63
  C 1035.26 163.37 1008.16 159.88 984.62 154.46
  C 977.89 152.91 970.45 149.70 969.76 141.67
  C 968.82 130.69 978.32 126.98 987.44 126.64
  C 1003.36 126.04 1018.19 130.02 1033.07 136.23
  A 0.42 0.42 0.0 0 0 1033.65 135.84
  Z
  M 1622.15 135.85
  L 1622.14 107.25
  A 0.91 0.90 -78.9 0 0 1621.58 106.41
  Q 1595.94 95.93 1568.25 98.30
  C 1540.26 100.71 1521.82 120.98 1524.84 149.58
  C 1527.90 178.69 1556.05 182.96 1579.85 188.19
  C 1582.79 188.84 1587.39 190.24 1589.70 191.84
  Q 1593.90 194.75 1594.35 196.24
  C 1598.98 211.57 1583.95 216.29 1572.52 217.09
  C 1555.82 218.24 1539.89 214.41 1524.79 207.05
  A 0.44 0.44 0.0 0 0 1524.16 207.45
  L 1524.17 235.86
  A 0.95 0.95 0.0 0 0 1524.66 236.69
  C 1540.95 245.52 1561.40 247.63 1579.94 245.72
  C 1599.04 243.77 1617.31 236.69 1625.30 218.48
  C 1628.88 210.32 1629.78 200.13 1628.39 191.64
  C 1623.77 163.38 1596.67 159.90 1573.13 154.49
  C 1566.40 152.94 1558.96 149.73 1558.26 141.70
  C 1557.32 130.72 1566.82 127.01 1575.94 126.67
  C 1591.86 126.06 1606.69 130.04 1621.57 136.24
  A 0.42 0.42 0.0 0 0 1622.15 135.85
  Z
  M 1248.31 172.45
  C 1248.53 215.38 1273.92 246.51 1318.77 246.29
  C 1363.63 246.07 1388.71 214.69 1388.50 171.76
  C 1388.29 128.83 1362.89 97.70 1318.04 97.92
  C 1273.19 98.14 1248.10 129.52 1248.31 172.45
  Z
  M 860.83 246.31
  C 888.32 246.32 912.94 235.13 919.62 206.02
  Q 921.67 197.09 921.67 186.75
  Q 921.70 158.62 921.72 100.86
  A 0.43 0.43 0.0 0 0 921.29 100.43
  L 889.42 100.43
  A 0.40 0.40 0.0 0 0 889.02 100.83
  Q 889.00 176.32 888.99 182.50
  C 888.95 202.32 883.12 217.24 860.84 217.23
  C 838.56 217.22 832.75 202.30 832.73 182.47
  Q 832.72 176.29 832.77 100.80
  A 0.40 0.40 0.0 0 0 832.37 100.40
  L 800.50 100.38
  A 0.43 0.43 0.0 0 0 800.07 100.81
  Q 800.03 158.57 800.04 186.70
  Q 800.03 197.04 802.07 205.96
  C 808.73 235.08 833.33 246.30 860.83 246.31
  Z
  M 1112.96 209.32
  Q 1133.87 209.31 1135.30 209.32
  A 0.43 0.42 78.5 0 1 1135.69 209.59
  L 1149.15 243.32
  A 0.74 0.73 -10.3 0 0 1149.84 243.79
  L 1183.93 243.79
  A 0.26 0.26 0.0 0 0 1184.17 243.43
  L 1127.37 101.10
  A 0.88 0.88 0.0 0 0 1126.65 100.55
  Q 1125.50 100.40 1112.92 100.41
  Q 1100.33 100.41 1099.18 100.56
  A 0.88 0.88 0.0 0 0 1098.46 101.11
  L 1041.77 243.49
  A 0.26 0.26 0.0 0 0 1042.01 243.85
  L 1076.10 243.82
  A 0.74 0.73 10.3 0 0 1076.79 243.35
  L 1090.23 209.61
  A 0.43 0.42 -78.6 0 1 1090.62 209.34
  Q 1092.04 209.33 1112.96 209.32
  Z
  M 1498.24 167.80
  Q 1506.16 161.05 1508.93 151.39
  C 1515.74 127.66 1499.86 107.93 1477.33 102.63
  Q 1467.87 100.40 1454.50 100.41
  Q 1406.67 100.41 1404.22 100.41
  A 0.33 0.33 0.0 0 0 1403.89 100.74
  L 1403.89 243.44
  A 0.34 0.34 0.0 0 0 1404.23 243.78
  Q 1439.11 243.88 1454.50 243.74
  C 1472.09 243.57 1488.72 240.74 1501.77 229.74
  Q 1516.62 217.22 1516.41 197.27
  Q 1516.25 182.21 1502.89 171.55
  Q 1502.59 171.31 1498.27 168.42
  A 0.39 0.39 0.0 0 1 1498.24 167.80
  Z
  M 1232.30 100.76
  L 1199.57 100.76
  A 0.33 0.32 -90.0 0 0 1199.25 101.09
  Q 1199.26 137.82 1199.24 234.75
  C 1199.24 241.41 1199.81 247.26 1197.92 253.61
  C 1195.17 262.80 1185.87 263.68 1177.81 262.13
  A 0.66 0.65 5.5 0 0 1177.03 262.77
  L 1177.03 289.12
  A 0.48 0.48 0.0 0 0 1177.41 289.59
  Q 1189.73 292.38 1202.23 289.98
  C 1218.43 286.87 1227.45 276.45 1230.83 261.02
  Q 1232.60 253.01 1232.60 248.00
  Q 1232.60 146.91 1232.59 101.06
  A 0.30 0.29 90.0 0 0 1232.30 100.76
  Z
  M 1641.35 114.04
  A 6.32 6.32 0.0 0 0 1635.03 107.72
  A 6.32 6.32 0.0 0 0 1628.71 114.04
  A 6.32 6.32 0.0 0 0 1635.03 120.36
  A 6.32 6.32 0.0 0 0 1641.35 114.04
  Z
  M 133.28 134.74
  L 77.58 134.89
  A 0.61 0.60 11.6 0 0 77.02 135.25
  Q 70.91 149.51 70.13 164.81
  A 0.28 0.27 -88.2 0 0 70.40 165.11
  L 118.33 164.98
  A 0.70 0.69 -86.4 0 0 119.01 164.37
  Q 121.05 147.03 133.44 135.12
  A 0.22 0.22 0.0 0 0 133.28 134.74
  Z
  M 133.61 206.31
  A 0.22 0.22 0.0 0 0 133.77 205.93
  Q 121.28 193.98 119.18 176.55
  A 0.70 0.70 0.0 0 0 118.49 175.94
  L 70.29 175.94
  A 0.28 0.27 88.0 0 0 70.02 176.24
  Q 70.85 191.63 77.03 205.95
  A 0.62 0.61 -11.8 0 0 77.59 206.31
  L 133.61 206.31
  Z"
/>
<rect fill="#093453" x="707.95" y="60.99" width="5.76" height="218.28" rx="0.46"/>
<path fill="#093453" d="
  M 83.23 123.71
  Q 83.16 123.53 83.33 123.28
  Q 96.81 102.85 116.98 92.10
  Q 135.75 82.09 158.01 80.89
  C 210.41 78.05 255.72 115.91 255.91 170.02
  C 256.02 202.85 238.85 232.08 210.28 248.21
  C 185.69 262.08 154.24 264.12 127.73 254.09
  Q 99.16 243.29 82.95 217.62
  A 0.29 0.29 0.0 0 1 83.19 217.18
  Q 111.82 217.31 164.30 217.14
  Q 169.33 217.13 175.92 215.20
  C 203.17 207.21 212.76 175.28 202.90 151.27
  Q 196.14 134.79 180.20 127.62
  C 173.35 124.53 165.75 123.88 157.76 123.89
  Q 138.35 123.92 83.52 123.90
  A 0.32 0.31 -11.2 0 1 83.23 123.71
  Z"
/>
<path fill="#093453" d="
  M 270.79 256.25
  L 270.79 84.70
  A 0.59 0.59 0.0 0 1 271.38 84.11
  Q 321.55 84.10 344.24 84.12
  C 363.44 84.14 384.07 88.24 398.71 101.50
  Q 414.17 115.50 416.32 137.70
  C 420.37 179.48 391.65 204.53 351.95 207.14
  Q 341.69 207.81 330.20 207.51
  A 0.60 0.60 0.0 0 1 329.61 206.91
  L 329.61 170.66
  A 0.67 0.67 0.0 0 1 330.30 169.99
  C 338.89 170.18 348.70 170.73 356.36 166.99
  Q 367.83 161.39 368.83 149.23
  C 370.32 131.16 356.72 124.43 340.99 124.37
  Q 329.94 124.33 319.02 124.36
  A 0.36 0.36 0.0 0 0 318.66 124.72
  L 318.66 256.64
  A 0.30 0.30 0.0 0 1 318.36 256.94
  L 271.48 256.94
  A 0.69 0.69 0.0 0 1 270.79 256.25
  Z"
/>
<path fill="#093453" d="
  M 478.58 256.93
  L 432.33 256.93
  A 0.32 0.32 0.0 0 1 432.01 256.61
  L 432.01 84.43
  A 0.32 0.32 0.0 0 1 432.33 84.11
  L 482.45 84.11
  A 0.32 0.32 0.0 0 1 482.72 84.26
  L 523.58 150.57
  A 0.32 0.32 0.0 0 0 524.12 150.57
  L 564.98 84.26
  A 0.32 0.32 0.0 0 1 565.25 84.11
  L 615.38 84.11
  A 0.32 0.32 0.0 0 1 615.70 84.43
  L 615.70 256.61
  A 0.32 0.32 0.0 0 1 615.38 256.93
  L 568.37 256.93
  A 0.32 0.32 0.0 0 1 568.05 256.61
  L 568.05 158.75
  A 0.32 0.32 0.0 0 0 567.46 158.57
  L 523.62 225.70
  A 0.32 0.32 0.0 0 1 523.08 225.70
  L 479.49 158.79
  A 0.32 0.32 0.0 0 0 478.90 158.97
  L 478.90 256.61
  A 0.32 0.32 0.0 0 1 478.58 256.93
  Z"
/>
<path fill="#981d20" d="
  M 1033.07 136.23
  C 1018.19 130.02 1003.36 126.04 987.44 126.64
  C 978.32 126.98 968.82 130.69 969.76 141.67
  C 970.45 149.70 977.89 152.91 984.62 154.46
  C 1008.16 159.88 1035.26 163.37 1039.87 191.63
  C 1041.26 200.12 1040.36 210.31 1036.78 218.47
  C 1028.78 236.68 1010.51 243.75 991.41 245.70
  C 972.87 247.60 952.42 245.49 936.13 236.65
  A 0.95 0.95 0.0 0 1 935.64 235.82
  L 935.64 207.41
  A 0.44 0.44 0.0 0 1 936.27 207.01
  C 951.37 214.38 967.30 218.21 984.00 217.06
  C 995.43 216.27 1010.46 211.55 1005.83 196.22
  Q 1005.38 194.73 1001.18 191.82
  C 998.87 190.22 994.27 188.82 991.33 188.17
  C 967.54 182.93 939.39 178.65 936.33 149.54
  C 933.32 120.94 951.77 100.67 979.76 98.27
  Q 1007.45 95.91 1033.09 106.40
  A 0.91 0.90 -78.9 0 1 1033.65 107.24
  L 1033.65 135.84
  A 0.42 0.42 0.0 0 1 1033.07 136.23
  Z"
/>
<path fill="#981d20" d="
  M 1622.15 135.85
  A 0.42 0.42 0.0 0 1 1621.57 136.24
  C 1606.69 130.04 1591.86 126.06 1575.94 126.67
  C 1566.82 127.01 1557.32 130.72 1558.26 141.70
  C 1558.96 149.73 1566.40 152.94 1573.13 154.49
  C 1596.67 159.90 1623.77 163.38 1628.39 191.64
  C 1629.78 200.13 1628.88 210.32 1625.30 218.48
  C 1617.31 236.69 1599.04 243.77 1579.94 245.72
  C 1561.40 247.63 1540.95 245.52 1524.66 236.69
  A 0.95 0.95 0.0 0 1 1524.17 235.86
  L 1524.16 207.45
  A 0.44 0.44 0.0 0 1 1524.79 207.05
  C 1539.89 214.41 1555.82 218.24 1572.52 217.09
  C 1583.95 216.29 1598.98 211.57 1594.35 196.24
  Q 1593.90 194.75 1589.70 191.84
  C 1587.39 190.24 1582.79 188.84 1579.85 188.19
  C 1556.05 182.96 1527.90 178.69 1524.84 149.58
  C 1521.82 120.98 1540.26 100.71 1568.25 98.30
  Q 1595.94 95.93 1621.58 106.41
  A 0.91 0.90 -78.9 0 1 1622.14 107.25
  L 1622.15 135.85
  Z"
/>
<path fill="#981d20" d="
  M 1318.04 97.92
  C 1362.89 97.70 1388.29 128.83 1388.50 171.76
  C 1388.71 214.69 1363.63 246.07 1318.77 246.29
  C 1273.92 246.51 1248.53 215.38 1248.31 172.45
  C 1248.10 129.52 1273.19 98.14 1318.04 97.92
  Z
  M 1281.57 171.97
  C 1281.68 195.29 1292.09 217.25 1318.57 217.13
  C 1345.04 217.01 1355.26 194.95 1355.15 171.63
  C 1355.05 148.32 1344.63 126.35 1318.16 126.47
  C 1291.68 126.59 1281.47 148.65 1281.57 171.97
  Z"
/>
<path fill="#981d20" d="
  M 860.84 217.23
  C 883.12 217.24 888.95 202.32 888.99 182.50
  Q 889.00 176.32 889.02 100.83
  A 0.40 0.40 0.0 0 1 889.42 100.43
  L 921.29 100.43
  A 0.43 0.43 0.0 0 1 921.72 100.86
  Q 921.70 158.62 921.67 186.75
  Q 921.67 197.09 919.62 206.02
  C 912.94 235.13 888.32 246.32 860.83 246.31
  C 833.33 246.30 808.73 235.08 802.07 205.96
  Q 800.03 197.04 800.04 186.70
  Q 800.03 158.57 800.07 100.81
  A 0.43 0.43 0.0 0 1 800.50 100.38
  L 832.37 100.40
  A 0.40 0.40 0.0 0 1 832.77 100.80
  Q 832.72 176.29 832.73 182.47
  C 832.75 202.30 838.56 217.22 860.84 217.23
  Z"
/>
<path fill="#981d20" d="
  M 1112.92 100.41
  Q 1125.50 100.40 1126.65 100.55
  A 0.88 0.88 0.0 0 1 1127.37 101.10
  L 1184.17 243.43
  A 0.26 0.26 0.0 0 1 1183.93 243.79
  L 1149.84 243.79
  A 0.74 0.73 -10.3 0 1 1149.15 243.32
  L 1135.69 209.59
  A 0.43 0.42 78.5 0 0 1135.30 209.32
  Q 1133.87 209.31 1112.96 209.32
  Q 1092.04 209.33 1090.62 209.34
  A 0.43 0.42 -78.6 0 0 1090.23 209.61
  L 1076.79 243.35
  A 0.74 0.73 10.3 0 1 1076.10 243.82
  L 1042.01 243.85
  A 0.26 0.26 0.0 0 1 1041.77 243.49
  L 1098.46 101.11
  A 0.88 0.88 0.0 0 1 1099.18 100.56
  Q 1100.33 100.41 1112.92 100.41
  Z
  M 1113.26 180.29
  Q 1121.28 180.30 1124.45 180.24
  A 0.27 0.27 0.0 0 0 1124.69 179.88
  Q 1118.26 163.26 1113.52 149.44
  Q 1113.47 149.28 1113.29 149.28
  Q 1113.12 149.28 1113.06 149.44
  Q 1108.30 163.25 1101.83 179.86
  A 0.27 0.27 0.0 0 0 1102.08 180.22
  Q 1105.25 180.28 1113.26 180.29
  Z"
/>
<path fill="#981d20" d="
  M 1498.27 168.42
  Q 1502.59 171.31 1502.89 171.55
  Q 1516.25 182.21 1516.41 197.27
  Q 1516.62 217.22 1501.77 229.74
  C 1488.72 240.74 1472.09 243.57 1454.50 243.74
  Q 1439.11 243.88 1404.23 243.78
  A 0.34 0.34 0.0 0 1 1403.89 243.44
  L 1403.89 100.74
  A 0.33 0.33 0.0 0 1 1404.22 100.41
  Q 1406.67 100.41 1454.50 100.41
  Q 1467.87 100.40 1477.33 102.63
  C 1499.86 107.93 1515.74 127.66 1508.93 151.39
  Q 1506.16 161.05 1498.24 167.80
  A 0.39 0.39 0.0 0 0 1498.27 168.42
  Z
  M 1436.74 129.59
  L 1436.84 155.81
  A 0.29 0.29 0.0 0 0 1437.13 156.10
  L 1461.34 156.01
  A 15.08 11.91 -0.2 0 0 1476.38 144.05
  L 1476.36 141.07
  A 15.08 11.91 -0.2 0 0 1461.24 129.21
  L 1437.03 129.30
  A 0.29 0.29 0.0 0 0 1436.74 129.59
  Z
  M 1436.78 185.44
  L 1436.78 214.54
  A 0.60 0.60 0.0 0 0 1437.38 215.14
  C 1449.58 215.24 1477.81 216.87 1481.49 203.56
  C 1483.86 194.98 1479.94 187.98 1470.92 186.05
  Q 1465.21 184.83 1457.50 184.80
  Q 1448.98 184.77 1437.45 184.78
  A 0.67 0.66 0.0 0 0 1436.78 185.44
  Z"
/>
<path fill="#981d20" d="
  M 1232.30 100.76
  A 0.30 0.29 90.0 0 1 1232.59 101.06
  Q 1232.60 146.91 1232.60 248.00
  Q 1232.60 253.01 1230.83 261.02
  C 1227.45 276.45 1218.43 286.87 1202.23 289.98
  Q 1189.73 292.38 1177.41 289.59
  A 0.48 0.48 0.0 0 1 1177.03 289.12
  L 1177.03 262.77
  A 0.66 0.65 5.5 0 1 1177.81 262.13
  C 1185.87 263.68 1195.17 262.80 1197.92 253.61
  C 1199.81 247.26 1199.24 241.41 1199.24 234.75
  Q 1199.26 137.82 1199.25 101.09
  A 0.33 0.32 -90.0 0 1 1199.57 100.76
  L 1232.30 100.76
  Z"
/>
<path fill="#981d20" d="
  M 1641.35 114.04
  A 6.32 6.32 0.0 0 1 1635.03 120.36
  A 6.32 6.32 0.0 0 1 1628.71 114.04
  A 6.32 6.32 0.0 0 1 1635.03 107.72
  A 6.32 6.32 0.0 0 1 1641.35 114.04
  Z
  M 1634.8952 109.3001
  A 4.82 4.62 -89.7 0 0 1630.2501 114.0958
  A 4.82 4.62 -89.7 0 0 1634.8448 118.9399
  A 4.82 4.62 -89.7 0 0 1639.4899 114.1442
  A 4.82 4.62 -89.7 0 0 1634.8952 109.3001
  Z"
/>
<path fill="#ffffff" d="
  M 1634.8952 109.3001
  A 4.82 4.62 -89.7 0 1 1639.4899 114.1442
  A 4.82 4.62 -89.7 0 1 1634.8448 118.9399
  A 4.82 4.62 -89.7 0 1 1630.2501 114.0958
  A 4.82 4.62 -89.7 0 1 1634.8952 109.3001
  Z
  M 1634.86 115.36
  Q 1635.76 117.02 1636.87 117.03
  A 0.48 0.47 74.0 0 0 1637.27 116.30
  L 1636.56 115.21
  A 0.82 0.82 0.0 0 1 1636.82 114.06
  Q 1637.98 113.38 1637.79 112.51
  C 1637.35 110.38 1634.57 110.69 1632.95 110.94
  A 0.70 0.70 0.0 0 0 1632.35 111.63
  L 1632.35 116.26
  A 0.74 0.73 -90.0 0 0 1633.08 117.00
  L 1633.62 117.00
  A 0.59 0.59 0.0 0 0 1634.20 116.25
  Q 1634.02 115.62 1634.14 115.38
  A 0.40 0.40 0.0 0 1 1634.86 115.36
  Z"
/>
<path fill="#981d20" d="
  M 1634.14 115.38
  Q 1634.02 115.62 1634.20 116.25
  A 0.59 0.59 0.0 0 1 1633.62 117.00
  L 1633.08 117.00
  A 0.74 0.73 -90.0 0 1 1632.35 116.26
  L 1632.35 111.63
  A 0.70 0.70 0.0 0 1 1632.95 110.94
  C 1634.57 110.69 1637.35 110.38 1637.79 112.51
  Q 1637.98 113.38 1636.82 114.06
  A 0.82 0.82 0.0 0 0 1636.56 115.21
  L 1637.27 116.30
  A 0.48 0.47 74.0 0 1 1636.87 117.03
  Q 1635.76 117.02 1634.86 115.36
  A 0.40 0.40 0.0 0 0 1634.14 115.38
  Z
  M 1635.25 112.10
  Q 1634.69 111.92 1634.44 112.02
  A 0.89 0.73 51.6 0 0 1634.42 113.40
  Q 1634.98 113.89 1635.50 113.23
  A 0.75 0.66 -61.3 0 0 1635.25 112.10
  Z"
/>
<path fill="#ffffff" d="
  M 1635.25 112.10
  A 0.75 0.66 -61.3 0 1 1635.50 113.23
  Q 1634.98 113.89 1634.42 113.40
  A 0.89 0.73 51.6 0 1 1634.44 112.02
  Q 1634.69 111.92 1635.25 112.10
  Z"
/>
<path fill="#ffffff" d="
  M 1318.16 126.47
  C 1344.63 126.35 1355.05 148.32 1355.15 171.63
  C 1355.26 194.95 1345.04 217.01 1318.57 217.13
  C 1292.09 217.25 1281.68 195.29 1281.57 171.97
  C 1281.47 148.65 1291.68 126.59 1318.16 126.47
  Z"
/>
<path fill="#ffffff" d="
  M 1436.74 129.59
  A 0.29 0.29 0.0 0 1 1437.03 129.30
  L 1461.24 129.21
  A 15.08 11.91 -0.2 0 1 1476.36 141.07
  L 1476.38 144.05
  A 15.08 11.91 -0.2 0 1 1461.34 156.01
  L 1437.13 156.10
  A 0.29 0.29 0.0 0 1 1436.84 155.81
  L 1436.74 129.59
  Z"
/>
<path fill="#009ed1" d="
  M 133.28 134.74
  A 0.22 0.22 0.0 0 1 133.44 135.12
  Q 121.05 147.03 119.01 164.37
  A 0.70 0.69 -86.4 0 1 118.33 164.98
  L 70.40 165.11
  A 0.28 0.27 -88.2 0 1 70.13 164.81
  Q 70.91 149.51 77.02 135.25
  A 0.61 0.60 11.6 0 1 77.58 134.89
  L 133.28 134.74
  Z"
/>
<path fill="#ffffff" d="
  M 1113.29 149.28
  Q 1113.47 149.28 1113.52 149.44
  Q 1118.26 163.26 1124.69 179.88
  A 0.27 0.27 0.0 0 1 1124.45 180.24
  Q 1121.28 180.30 1113.26 180.29
  Q 1105.25 180.28 1102.08 180.22
  A 0.27 0.27 0.0 0 1 1101.83 179.86
  Q 1108.30 163.25 1113.06 149.44
  Q 1113.12 149.28 1113.29 149.28
  Z"
/>
<path fill="#d13138" d="
  M 133.61 206.31
  L 77.59 206.31
  A 0.62 0.61 -11.8 0 1 77.03 205.95
  Q 70.85 191.63 70.02 176.24
  A 0.28 0.27 88.0 0 1 70.29 175.94
  L 118.49 175.94
  A 0.70 0.70 0.0 0 1 119.18 176.55
  Q 121.28 193.98 133.77 205.93
  A 0.22 0.22 0.0 0 1 133.61 206.31
  Z"
/>
<path fill="#ffffff" d="
  M 1437.45 184.78
  Q 1448.98 184.77 1457.50 184.80
  Q 1465.21 184.83 1470.92 186.05
  C 1479.94 187.98 1483.86 194.98 1481.49 203.56
  C 1477.81 216.87 1449.58 215.24 1437.38 215.14
  A 0.60 0.60 0.0 0 1 1436.78 214.54
  L 1436.78 185.44
  A 0.67 0.66 -0.0 0 1 1437.45 184.78
  Z"
/>
</svg>
