<svg xmlns="http://www.w3.org/2000/svg" viewBox="0 0 1699.9 348.91"><defs><style>.cls-1{fill:#fff;}.cls-2{fill:#093453;}.cls-3{fill:#d13138;}.cls-4{fill:#009ed1;}.cls-5{fill:#981d20;}</style></defs><g id="Layer_2" data-name="Layer 2"><g id="Layer_1-2" data-name="Layer 1"><path class="cls-1" d="M0,174V348.91H1699.9V0H174A174,174,0,0,0,0,174"/><rect class="cls-2" x="708.04" y="61.13" width="5.76" height="218.85"/><polygon class="cls-2" points="431.36 84.33 482.11 84.33 523.45 151.41 564.78 84.33 615.54 84.33 615.54 257.61 567.75 257.61 567.75 158.1 523.45 225.92 522.45 225.92 478.39 158.34 478.39 257.61 431.36 257.61 431.36 84.33"/><path class="cls-2" d="M161.8,80.86c-35.08,0-64.41,17.37-80.43,43.37h78.92l1,0c26.49,0,44.31,21.53,44.31,46.77v.51c0,25-17.58,46.29-43.82,46.29l-.38,0v0H81.05c15.84,26,45,43.31,80.26,43.31,53.46,0,93.57-40.35,93.57-90.11v-.49c0-49.76-39.61-89.61-93.08-89.61"/><path class="cls-3" d="M117.6,176.44H68.41a88.84,88.84,0,0,0,7.06,30.37H132.8a47.36,47.36,0,0,1-15.2-30.37"/><path class="cls-4" d="M117.54,165.49a46.61,46.61,0,0,1,14.74-30.36H75.72a88.69,88.69,0,0,0-7.28,30.36Z"/><path class="cls-2" d="M344.23,84.33H269.72V257.62h48V208.1h0V170.48h0v-45.8h22.78c17.08,0,27.72,7.68,27.72,22.52v.51c0,13.6-10.64,22.77-27.47,22.77H328.7V208.1h13.05c42.83,0,74.27-21.53,74.27-62.62V145c0-38.12-28.22-60.65-71.79-60.65"/><path class="cls-5" d="M1200.84,239.21c0,2.5,0,5.23-.22,8a27.63,27.63,0,0,1-1.6,7.74c-.68,2.27-3.41,10.46-19.1,8h-1.59v27.29l1.13.23a53.61,53.61,0,0,0,11.6,1.37c9.1,0,16.38-1.37,22.07-4.1a33.69,33.69,0,0,0,13.19-11.14,40.82,40.82,0,0,0,6.14-15.93c1.14-5.91,1.59-7.5,1.59-13.65v-146h-33.43v138.3Z"/><path class="cls-5" d="M889.67,182.34c0,9.1-1.14,15.93-3.18,20.93-2.28,5.23-5.24,8.87-9.56,11.15a36.77,36.77,0,0,1-30.93,0,22.76,22.76,0,0,1-9.56-10.92c-2-4.78-3.18-11.83-3.18-20.93V100.68h-33v83.94a112.26,112.26,0,0,0,.91,15.92A60.92,60.92,0,0,0,804.6,214a52.58,52.58,0,0,0,8,13.88,53.37,53.37,0,0,0,12.06,10.46,56.69,56.69,0,0,0,16.15,6.37A89.84,89.84,0,0,0,861,246.94a78.88,78.88,0,0,0,20.25-2.27,58.26,58.26,0,0,0,16.37-6.37,42.4,42.4,0,0,0,12.29-10.46,44.32,44.32,0,0,0,8-13.88,60.92,60.92,0,0,0,3.41-13.42,115.82,115.82,0,0,0,.91-15.92V100.68H889.67Z"/><path class="cls-5" d="M1026.38,168.47a52.48,52.48,0,0,0-15.24-7.28c-5.46-1.59-11.15-3-16.83-4.32-3.64-.68-7.06-1.59-10-2.28a26.44,26.44,0,0,1-7.74-3.18,12,12,0,0,1-4.55-4.32,12.49,12.49,0,0,1-1.59-6.37c0-4.55,1.59-7.74,4.78-10,3.64-2.5,9.32-3.87,16.6-3.87a98.24,98.24,0,0,1,17.52,1.82,105.15,105.15,0,0,1,19.56,5.92l5.69,2.27v-29.8l-2.51-1.13a93.06,93.06,0,0,0-19.78-5.69c-15.25-3-31.17-3-43.45.45a46.26,46.26,0,0,0-16.61,8.65,42.21,42.21,0,0,0-11.37,14.56,48.32,48.32,0,0,0-4.09,20.47c0,7,1.13,13.19,3.64,18a34.28,34.28,0,0,0,10,12,53.63,53.63,0,0,0,13.88,7.28c5,1.59,10.24,3,15.7,4.32,3.86.91,7.73,1.6,11.37,2.51a47.87,47.87,0,0,1,9.1,2.95,17.39,17.39,0,0,1,5.46,4.1c1.13,1.36,1.59,3.41,1.59,5.91a12.22,12.22,0,0,1-2,7.51,15,15,0,0,1-5.69,5,35.27,35.27,0,0,1-9.09,3c-9.79,1.59-20.25.91-29.8-.91A107.67,107.67,0,0,1,942,209.87l-5.69-2.5v29.57l2.05,1.13a71.79,71.79,0,0,0,19.11,6.6,107.24,107.24,0,0,0,22.74,2.27,103.59,103.59,0,0,0,24.34-2.72,56.55,56.55,0,0,0,19.56-8.42A39.9,39.9,0,0,0,1036.84,221a46.14,46.14,0,0,0,4.55-20.7c0-7.73-1.36-14.33-4.09-19.33A34.3,34.3,0,0,0,1026.38,168.47Z"/><path class="cls-5" d="M1183.56,239.44l-55.28-138.76h-28.43l-57.32,143.76H1078l13.42-34.57h45.72l13.42,34.57h35.26M1126,180.75h-23.2l2.5-6.59c2.73-7.06,5.91-15.47,9.1-25,3.41,9.56,6.37,18,9.1,25Z"/><path class="cls-5" d="M1372.13,119.11a64.38,64.38,0,0,0-22.3-15.47c-8.64-3.64-18.65-5.46-29.79-5.46a78.11,78.11,0,0,0-29.8,5.46A64.24,64.24,0,0,0,1268,119.11a65.91,65.91,0,0,0-13.65,23.66c-3.19,9.09-4.55,19.1-4.55,29.79a96.19,96.19,0,0,0,4.55,29.8A69.3,69.3,0,0,0,1268,226a64.38,64.38,0,0,0,22.29,15.47c8.64,3.64,18.65,5.45,29.8,5.45a78.1,78.1,0,0,0,29.79-5.45,64.51,64.51,0,0,0,22.3-15.47,65.89,65.89,0,0,0,13.64-23.66c3.19-9.1,4.55-19.11,4.55-29.8a96.08,96.08,0,0,0-4.55-29.79A69.44,69.44,0,0,0,1372.13,119.11Zm-66.88,95.76a30.94,30.94,0,0,1-11.37-8.19,44.92,44.92,0,0,1-7.74-13.87,67.14,67.14,0,0,1-3-20.47,62.87,62.87,0,0,1,3-20.48,36.67,36.67,0,0,1,7.74-14.1,30.94,30.94,0,0,1,11.37-8.19,38.08,38.08,0,0,1,14.79-2.73,39.71,39.71,0,0,1,14.78,2.73,30.94,30.94,0,0,1,11.37,8.19,43.76,43.76,0,0,1,7.74,14.1,67.14,67.14,0,0,1,3,20.48,62.57,62.57,0,0,1-3,20.47,35.54,35.54,0,0,1-7.74,13.87,30.94,30.94,0,0,1-11.37,8.19A39.11,39.11,0,0,1,1305.25,214.87Z"/><path class="cls-5" d="M1511.11,177.8a36.14,36.14,0,0,0-8.19-7.28,21.6,21.6,0,0,0-3.19-1.82,31.19,31.19,0,0,0,8.42-9.78,37.25,37.25,0,0,0,2.73-29.35,33,33,0,0,0-5.46-10.46,43.19,43.19,0,0,0-9.33-8.87,44.33,44.33,0,0,0-13.19-6.37c-6.6-2.05-15.24-3.19-25.7-3.19h-51.41V244.44h43.67c3.87,0,7.28,0,10.24-.22,3.18,0,5.91-.23,8.42-.46a65.75,65.75,0,0,0,7.05-.91c2-.45,4.09-.68,5.91-1.14a59.63,59.63,0,0,0,18-7.73,47.91,47.91,0,0,0,11.6-10.69,36.5,36.5,0,0,0,6.14-12.28,44,44,0,0,0,1.82-11.83,39,39,0,0,0-1.82-11.83A39.18,39.18,0,0,0,1511.11,177.8ZM1476.76,150c-1.14,2.05-3.18,3.42-5.91,4.78-2,.68-5.92,1.82-13.65,1.82h-18.43V129.57h16.38c3.41,0,6.37,0,8.64.23a33.75,33.75,0,0,1,5.69.91c3.41,1.14,5.92,2.5,7,4.55a13,13,0,0,1,2,7.28A13.64,13.64,0,0,1,1476.76,150Zm-38,35.26h19.57c3.86,0,7.27.23,9.78.46a42.19,42.19,0,0,1,6.14,1.13c3.64,1.14,6.14,2.73,7.73,5a11.81,11.81,0,0,1,2.28,7.5,17.58,17.58,0,0,1-.69,5,11.44,11.44,0,0,1-2.27,3.87,20,20,0,0,1-4.55,3.41,28,28,0,0,1-7.73,2.5,55.94,55.94,0,0,1-7.28,1.14c-3,.22-6.6.45-10.92.45h-12.06Z"/><path class="cls-5" d="M1627.34,181a34.3,34.3,0,0,0-10.92-12.51,52.35,52.35,0,0,0-15.24-7.28c-5.46-1.59-11.14-3-16.83-4.32-3.64-.68-7-1.59-10-2.28a26.38,26.38,0,0,1-7.73-3.18,11.92,11.92,0,0,1-4.55-4.32,12.49,12.49,0,0,1-1.59-6.37c0-4.55,1.59-7.74,4.77-10,3.64-2.5,9.33-3.87,16.61-3.87a98.13,98.13,0,0,1,17.51,1.82,105.24,105.24,0,0,1,19.57,5.92l5.68,2.27v-29.8l-2.5-1.13a93.34,93.34,0,0,0-19.79-5.69c-15.24-3-31.16-3-43.45.45a46.3,46.3,0,0,0-16.6,8.65,42.09,42.09,0,0,0-11.37,14.56,48.32,48.32,0,0,0-4.1,20.47c0,7,1.14,13.19,3.64,18a34.31,34.31,0,0,0,10,12,53.3,53.3,0,0,0,13.88,7.28c5,1.59,10.23,3,15.69,4.32,3.87.91,7.73,1.6,11.37,2.51a47.64,47.64,0,0,1,9.1,2.95,17.16,17.16,0,0,1,5.46,4.1c1.14,1.36,1.59,3.41,1.59,5.91a12.29,12.29,0,0,1-2,7.51,15.12,15.12,0,0,1-5.69,5,35.35,35.35,0,0,1-9.1,3c-9.78,1.59-20.24.91-29.8-.91a107.67,107.67,0,0,1-18.88-6.14l-5.68-2.5v29.57l2,1.13a72,72,0,0,0,19.11,6.6,107.33,107.33,0,0,0,22.75,2.27,103.65,103.65,0,0,0,24.34-2.72,56.63,56.63,0,0,0,19.56-8.42A39.9,39.9,0,0,0,1626.89,221a46.27,46.27,0,0,0,4.55-20.7C1631.44,192.58,1630.07,186.21,1627.34,181Z"/><path class="cls-5" d="M1631.21,114.33a8.38,8.38,0,0,1,.45-2.5,5.53,5.53,0,0,1,1.37-2,7.87,7.87,0,0,1,2-1.36,8.07,8.07,0,0,1,2.5-.46,9.56,9.56,0,0,1,2.5.46,5.5,5.5,0,0,1,2.05,1.36,6.73,6.73,0,0,1,1.36,7,5.35,5.35,0,0,1-1.36,2,8,8,0,0,1-2.05,1.37,8.38,8.38,0,0,1-2.5.45,10,10,0,0,1-2.5-.45,5.38,5.38,0,0,1-2-1.37,7.87,7.87,0,0,1-1.37-2A4.94,4.94,0,0,1,1631.21,114.33Zm1.59,0a4.38,4.38,0,0,0,.23,1.82,3.62,3.62,0,0,0,.91,1.59,9,9,0,0,0,1.59,1.14,5.31,5.31,0,0,0,1.82.46,4.24,4.24,0,0,0,1.82-.46,4,4,0,0,0,1.59-1.14,3.62,3.62,0,0,0,.91-1.59,5,5,0,0,0,.23-1.82,4.41,4.41,0,0,0-.23-1.82,3.68,3.68,0,0,0-.91-1.59,3.72,3.72,0,0,0-1.59-.91,5.29,5.29,0,0,0-1.82-.45,4.28,4.28,0,0,0-1.82.45,9.75,9.75,0,0,0-1.59.91,3.68,3.68,0,0,0-.91,1.59A4.41,4.41,0,0,0,1632.8,114.33Zm5.69.46,1.82,2.5h-1.82L1636.9,115h-.23v2.28h-1.82v-6.14h3.64c.23,0,.68.23.91.23.23.22.45.45.68.68s.23.45.23.91a1.75,1.75,0,0,1-.46,1.14c-.45.45-.91.45-1.36.68Zm-1.82-2.5v1.59h.45c.46,0,.69,0,.91-.23s.23-.23.23-.68c0-.23,0-.46-.23-.46a.84.84,0,0,0-.68-.22Z"/></g></g></svg>