<?xml version="1.0" encoding="UTF-8" standalone="no"?>
<!DOCTYPE svg PUBLIC "-//W3C//DTD SVG 1.1//EN" "http://www.w3.org/Graphics/SVG/1.1/DTD/svg11.dtd">
<svg xmlns="http://www.w3.org/2000/svg" version="1.1" viewBox="0.00 0.00 300.00 169.00" width="300.00" height="169.00">
<g stroke-width="2.10" fill="none" stroke-linecap="butt">
<path stroke="#7e9a36" vector-effect="non-scaling-stroke" d="
  M 102.96 92.78
  L 93.73 92.78
  A 0.75 0.74 -84.9 0 0 93.00 93.40
  Q 92.22 97.90 91.39 105.65
  Q 90.81 110.99 95.37 112.14
  C 99.86 113.28 115.21 114.67 116.68 107.17
  Q 117.74 101.76 118.75 93.83
  C 120.04 83.76 115.93 82.76 107.91 78.74
  A 3.29 3.29 0.0 0 1 106.13 75.34
  L 107.44 66.10
  A 1.67 1.66 4.0 0 1 109.09 64.67
  L 110.63 64.67
  A 1.40 1.39 4.1 0 1 112.02 66.26
  L 110.76 75.18
  A 0.49 0.48 -86.3 0 0 111.23 75.73
  L 120.56 75.73
  A 0.67 0.66 -85.4 0 0 121.21 75.17
  Q 122.62 66.21 122.85 62.28
  C 123.17 56.66 118.52 55.76 114.00 55.68
  Q 105.59 55.52 91.75 55.64
  A 0.17 0.17 0.0 0 0 91.66 55.95
  L 97.45 59.63
  A 0.83 0.83 0.0 0 1 97.82 60.48
  Q 96.32 68.49 95.37 76.38
  Q 94.52 83.38 100.04 86.47
  Q 103.06 88.17 106.26 89.72
  Q 108.30 90.71 108.12 92.57
  Q 107.71 96.95 106.86 102.22
  A 1.94 1.94 0.0 0 1 104.94 103.86
  L 103.67 103.86
  A 1.48 1.48 0.0 0 1 102.21 102.17
  L 103.45 93.35
  A 0.50 0.50 0.0 0 0 102.96 92.78"
/>
<path stroke="#7e9a36" vector-effect="non-scaling-stroke" d="
  M 131.30 112.90
  A 0.35 0.35 0.0 0 0 131.64 112.60
  L 139.62 56.01
  A 0.35 0.35 0.0 0 0 139.28 55.61
  L 128.84 55.61
  A 0.35 0.35 0.0 0 0 128.50 55.91
  L 120.52 112.50
  A 0.35 0.35 0.0 0 0 120.86 112.90
  L 131.30 112.90"
/>
<path stroke="#7e9a36" vector-effect="non-scaling-stroke" d="
  M 156.15 104.02
  A 0.41 0.41 0.0 0 0 155.75 103.55
  L 148.85 103.55
  A 0.41 0.41 0.0 0 1 148.45 103.08
  L 150.42 89.09
  A 0.41 0.41 0.0 0 1 150.83 88.74
  L 157.78 88.74
  A 0.41 0.41 0.0 0 0 158.19 88.39
  L 159.37 79.98
  A 0.41 0.41 0.0 0 0 158.97 79.51
  L 152.26 79.51
  A 0.41 0.41 0.0 0 1 151.86 79.04
  L 153.79 65.29
  A 0.41 0.41 0.0 0 1 154.20 64.94
  L 161.31 64.94
  A 0.41 0.41 0.0 0 0 161.72 64.59
  L 162.92 56.07
  A 0.41 0.41 0.0 0 0 162.52 55.60
  L 144.37 55.60
  A 0.41 0.41 0.0 0 0 143.96 55.95
  L 136.00 112.43
  A 0.41 0.41 0.0 0 0 136.40 112.90
  L 154.54 112.90
  A 0.41 0.41 0.0 0 0 154.95 112.55
  L 156.15 104.02"
/>
<path stroke="#7e9a36" vector-effect="non-scaling-stroke" d="
  M 174.57 84.52
  Q 174.84 93.28 175.40 112.55
  A 0.38 0.37 88.9 0 0 175.77 112.91
  L 190.32 112.91
  A 0.36 0.35 -86.3 0 0 190.67 112.60
  L 198.67 55.86
  A 0.22 0.21 -85.4 0 0 198.46 55.61
  L 189.90 55.61
  A 0.30 0.29 -85.4 0 0 189.61 55.86
  Q 185.82 79.64 183.94 99.15
  Q 183.94 99.18 183.92 99.20
  A 0.03 0.03 0.0 0 1 183.87 99.19
  Q 183.82 96.75 183.42 84.00
  Q 183.15 75.24 182.59 55.98
  A 0.38 0.37 88.9 0 0 182.22 55.61
  L 167.67 55.61
  A 0.36 0.35 -86.3 0 0 167.32 55.92
  L 159.32 112.66
  A 0.22 0.21 -85.4 0 0 159.53 112.91
  L 168.09 112.91
  A 0.30 0.29 -85.4 0 0 168.38 112.66
  Q 172.17 88.88 174.05 69.37
  Q 174.05 69.34 174.07 69.32
  A 0.03 0.03 0.0 0 1 174.12 69.33
  Q 174.17 71.77 174.57 84.52"
/>
<path stroke="#7e9a36" vector-effect="non-scaling-stroke" d="
  M 208.03 55.60
  A 0.38 0.38 0.0 0 0 207.66 55.89
  L 194.04 112.43
  A 0.38 0.38 0.0 0 0 194.41 112.90
  L 204.21 112.90
  A 0.38 0.38 0.0 0 0 204.58 112.61
  L 206.81 103.34
  A 0.38 0.38 0.0 0 1 207.18 103.05
  L 213.99 103.05
  A 0.38 0.38 0.0 0 1 214.37 103.45
  L 214.00 112.50
  A 0.38 0.38 0.0 0 0 214.38 112.90
  L 224.17 112.90
  A 0.38 0.38 0.0 0 0 224.55 112.54
  L 226.89 56.00
  A 0.38 0.38 0.0 0 0 226.51 55.60
  L 208.03 55.60"
/>
<path stroke="#7e9a36" vector-effect="non-scaling-stroke" d="
  M 215.72 65.66
  A 0.29 0.29 0.0 0 0 215.44 65.88
  L 208.82 93.35
  A 0.29 0.29 0.0 0 0 209.10 93.71
  L 214.87 93.71
  A 0.29 0.29 0.0 0 0 215.16 93.43
  L 216.31 65.96
  A 0.29 0.29 0.0 0 0 216.02 65.66
  L 215.72 65.66"
/>
</g>
<path fill="#fcc917" d="
  M 90.22 85.53
  C 87.21 78.48 89.62 70.74 90.49 63.61
  A 0.91 0.90 -70.8 0 0 90.08 62.75
  L 69.02 49.33
  A 0.18 0.18 0.0 0 1 69.12 49.00
  L 233.44 49.00
  A 0.32 0.31 1.7 0 1 233.76 49.33
  L 230.85 119.20
  A 0.42 0.42 0.0 0 1 230.43 119.61
  Q 120.10 119.67 100.50 119.61
  C 97.42 119.60 91.60 118.51 88.92 116.18
  C 84.62 112.45 84.45 108.07 85.14 102.47
  Q 85.99 95.67 87.25 86.92
  A 0.89 0.89 0.0 0 1 88.16 86.17
  L 89.74 86.24
  A 0.51 0.50 79.3 0 0 90.22 85.53
  Z
  M 102.96 92.78
  L 93.73 92.78
  A 0.75 0.74 -84.9 0 0 93.00 93.40
  Q 92.22 97.90 91.39 105.65
  Q 90.81 110.99 95.37 112.14
  C 99.86 113.28 115.21 114.67 116.68 107.17
  Q 117.74 101.76 118.75 93.83
  C 120.04 83.76 115.93 82.76 107.91 78.74
  A 3.29 3.29 0.0 0 1 106.13 75.34
  L 107.44 66.10
  A 1.67 1.66 4.0 0 1 109.09 64.67
  L 110.63 64.67
  A 1.40 1.39 4.1 0 1 112.02 66.26
  L 110.76 75.18
  A 0.49 0.48 -86.3 0 0 111.23 75.73
  L 120.56 75.73
  A 0.67 0.66 -85.4 0 0 121.21 75.17
  Q 122.62 66.21 122.85 62.28
  C 123.17 56.66 118.52 55.76 114.00 55.68
  Q 105.59 55.52 91.75 55.64
  A 0.17 0.17 0.0 0 0 91.66 55.95
  L 97.45 59.63
  A 0.83 0.83 0.0 0 1 97.82 60.48
  Q 96.32 68.49 95.37 76.38
  Q 94.52 83.38 100.04 86.47
  Q 103.06 88.17 106.26 89.72
  Q 108.30 90.71 108.12 92.57
  Q 107.71 96.95 106.86 102.22
  A 1.94 1.94 0.0 0 1 104.94 103.86
  L 103.67 103.86
  A 1.48 1.48 0.0 0 1 102.21 102.17
  L 103.45 93.35
  A 0.50 0.50 0.0 0 0 102.96 92.78
  Z
  M 131.30 112.90
  A 0.35 0.35 0.0 0 0 131.64 112.60
  L 139.62 56.01
  A 0.35 0.35 0.0 0 0 139.28 55.61
  L 128.84 55.61
  A 0.35 0.35 0.0 0 0 128.50 55.91
  L 120.52 112.50
  A 0.35 0.35 0.0 0 0 120.86 112.90
  L 131.30 112.90
  Z
  M 156.15 104.02
  A 0.41 0.41 0.0 0 0 155.75 103.55
  L 148.85 103.55
  A 0.41 0.41 0.0 0 1 148.45 103.08
  L 150.42 89.09
  A 0.41 0.41 0.0 0 1 150.83 88.74
  L 157.78 88.74
  A 0.41 0.41 0.0 0 0 158.19 88.39
  L 159.37 79.98
  A 0.41 0.41 0.0 0 0 158.97 79.51
  L 152.26 79.51
  A 0.41 0.41 0.0 0 1 151.86 79.04
  L 153.79 65.29
  A 0.41 0.41 0.0 0 1 154.20 64.94
  L 161.31 64.94
  A 0.41 0.41 0.0 0 0 161.72 64.59
  L 162.92 56.07
  A 0.41 0.41 0.0 0 0 162.52 55.60
  L 144.37 55.60
  A 0.41 0.41 0.0 0 0 143.96 55.95
  L 136.00 112.43
  A 0.41 0.41 0.0 0 0 136.40 112.90
  L 154.54 112.90
  A 0.41 0.41 0.0 0 0 154.95 112.55
  L 156.15 104.02
  Z
  M 174.57 84.52
  Q 174.84 93.28 175.40 112.55
  A 0.38 0.37 88.9 0 0 175.77 112.91
  L 190.32 112.91
  A 0.36 0.35 -86.3 0 0 190.67 112.60
  L 198.67 55.86
  A 0.22 0.21 -85.4 0 0 198.46 55.61
  L 189.90 55.61
  A 0.30 0.29 -85.4 0 0 189.61 55.86
  Q 185.82 79.64 183.94 99.15
  Q 183.94 99.18 183.92 99.20
  A 0.03 0.03 0.0 0 1 183.87 99.19
  Q 183.82 96.75 183.42 84.00
  Q 183.15 75.24 182.59 55.98
  A 0.38 0.37 88.9 0 0 182.22 55.61
  L 167.67 55.61
  A 0.36 0.35 -86.3 0 0 167.32 55.92
  L 159.32 112.66
  A 0.22 0.21 -85.4 0 0 159.53 112.91
  L 168.09 112.91
  A 0.30 0.29 -85.4 0 0 168.38 112.66
  Q 172.17 88.88 174.05 69.37
  Q 174.05 69.34 174.07 69.32
  A 0.03 0.03 0.0 0 1 174.12 69.33
  Q 174.17 71.77 174.57 84.52
  Z
  M 208.03 55.60
  A 0.38 0.38 0.0 0 0 207.66 55.89
  L 194.04 112.43
  A 0.38 0.38 0.0 0 0 194.41 112.90
  L 204.21 112.90
  A 0.38 0.38 0.0 0 0 204.58 112.61
  L 206.81 103.34
  A 0.38 0.38 0.0 0 1 207.18 103.05
  L 213.99 103.05
  A 0.38 0.38 0.0 0 1 214.37 103.45
  L 214.00 112.50
  A 0.38 0.38 0.0 0 0 214.38 112.90
  L 224.17 112.90
  A 0.38 0.38 0.0 0 0 224.55 112.54
  L 226.89 56.00
  A 0.38 0.38 0.0 0 0 226.51 55.60
  L 208.03 55.60
  Z"
/>
<path fill="#006b54" d="
  M 103.45 93.35
  L 102.21 102.17
  A 1.48 1.48 0.0 0 0 103.67 103.86
  L 104.94 103.86
  A 1.94 1.94 0.0 0 0 106.86 102.22
  Q 107.71 96.95 108.12 92.57
  Q 108.30 90.71 106.26 89.72
  Q 103.06 88.17 100.04 86.47
  Q 94.52 83.38 95.37 76.38
  Q 96.32 68.49 97.82 60.48
  A 0.83 0.83 0.0 0 0 97.45 59.63
  L 91.66 55.95
  A 0.17 0.17 0.0 0 1 91.75 55.64
  Q 105.59 55.52 114.00 55.68
  C 118.52 55.76 123.17 56.66 122.85 62.28
  Q 122.62 66.21 121.21 75.17
  A 0.67 0.66 -85.4 0 1 120.56 75.73
  L 111.23 75.73
  A 0.49 0.48 -86.3 0 1 110.76 75.18
  L 112.02 66.26
  A 1.40 1.39 4.1 0 0 110.63 64.67
  L 109.09 64.67
  A 1.67 1.66 4.0 0 0 107.44 66.10
  L 106.13 75.34
  A 3.29 3.29 0.0 0 0 107.91 78.74
  C 115.93 82.76 120.04 83.76 118.75 93.83
  Q 117.74 101.76 116.68 107.17
  C 115.21 114.67 99.86 113.28 95.37 112.14
  Q 90.81 110.99 91.39 105.65
  Q 92.22 97.90 93.00 93.40
  A 0.75 0.74 -84.9 0 1 93.73 92.78
  L 102.96 92.78
  A 0.50 0.50 0.0 0 1 103.45 93.35
  Z"
/>
<path fill="#006b54" d="
  M 131.30 112.90
  L 120.86 112.90
  A 0.35 0.35 0.0 0 1 120.52 112.50
  L 128.50 55.91
  A 0.35 0.35 0.0 0 1 128.84 55.61
  L 139.28 55.61
  A 0.35 0.35 0.0 0 1 139.62 56.01
  L 131.64 112.60
  A 0.35 0.35 0.0 0 1 131.30 112.90
  Z"
/>
<path fill="#006b54" d="
  M 156.15 104.02
  L 154.95 112.55
  A 0.41 0.41 0.0 0 1 154.54 112.90
  L 136.40 112.90
  A 0.41 0.41 0.0 0 1 136.00 112.43
  L 143.96 55.95
  A 0.41 0.41 0.0 0 1 144.37 55.60
  L 162.52 55.60
  A 0.41 0.41 0.0 0 1 162.92 56.07
  L 161.72 64.59
  A 0.41 0.41 0.0 0 1 161.31 64.94
  L 154.20 64.94
  A 0.41 0.41 0.0 0 0 153.79 65.29
  L 151.86 79.04
  A 0.41 0.41 0.0 0 0 152.26 79.51
  L 158.97 79.51
  A 0.41 0.41 0.0 0 1 159.37 79.98
  L 158.19 88.39
  A 0.41 0.41 0.0 0 1 157.78 88.74
  L 150.83 88.74
  A 0.41 0.41 0.0 0 0 150.42 89.09
  L 148.45 103.08
  A 0.41 0.41 0.0 0 0 148.85 103.55
  L 155.75 103.55
  A 0.41 0.41 0.0 0 1 156.15 104.02
  Z"
/>
<path fill="#006b54" d="
  M 183.42 84.00
  Q 183.82 96.75 183.87 99.19
  A 0.03 0.03 0.0 0 0 183.92 99.20
  Q 183.94 99.18 183.94 99.15
  Q 185.82 79.64 189.61 55.86
  A 0.30 0.29 -85.4 0 1 189.90 55.61
  L 198.46 55.61
  A 0.22 0.21 -85.4 0 1 198.67 55.86
  L 190.67 112.60
  A 0.36 0.35 -86.3 0 1 190.32 112.91
  L 175.77 112.91
  A 0.38 0.37 88.9 0 1 175.40 112.55
  Q 174.84 93.28 174.57 84.52
  Q 174.17 71.77 174.12 69.33
  A 0.03 0.03 0.0 0 0 174.07 69.32
  Q 174.05 69.34 174.05 69.37
  Q 172.17 88.88 168.38 112.66
  A 0.30 0.29 -85.4 0 1 168.09 112.91
  L 159.53 112.91
  A 0.22 0.21 -85.4 0 1 159.32 112.66
  L 167.32 55.92
  A 0.36 0.35 -86.3 0 1 167.67 55.61
  L 182.22 55.61
  A 0.38 0.37 88.9 0 1 182.59 55.98
  Q 183.15 75.24 183.42 84.00
  Z"
/>
<path fill="#006b54" d="
  M 208.03 55.60
  L 226.51 55.60
  A 0.38 0.38 0.0 0 1 226.89 56.00
  L 224.55 112.54
  A 0.38 0.38 0.0 0 1 224.17 112.90
  L 214.38 112.90
  A 0.38 0.38 0.0 0 1 214.00 112.50
  L 214.37 103.45
  A 0.38 0.38 0.0 0 0 213.99 103.05
  L 207.18 103.05
  A 0.38 0.38 0.0 0 0 206.81 103.34
  L 204.58 112.61
  A 0.38 0.38 0.0 0 1 204.21 112.90
  L 194.41 112.90
  A 0.38 0.38 0.0 0 1 194.04 112.43
  L 207.66 55.89
  A 0.38 0.38 0.0 0 1 208.03 55.60
  Z
  M 215.72 65.66
  A 0.29 0.29 0.0 0 0 215.44 65.88
  L 208.82 93.35
  A 0.29 0.29 0.0 0 0 209.10 93.71
  L 214.87 93.71
  A 0.29 0.29 0.0 0 0 215.16 93.43
  L 216.31 65.96
  A 0.29 0.29 0.0 0 0 216.02 65.66
  L 215.72 65.66
  Z"
/>
<path fill="#fcc917" d="
  M 215.72 65.66
  L 216.02 65.66
  A 0.29 0.29 0.0 0 1 216.31 65.96
  L 215.16 93.43
  A 0.29 0.29 0.0 0 1 214.87 93.71
  L 209.10 93.71
  A 0.29 0.29 0.0 0 1 208.82 93.35
  L 215.44 65.88
  A 0.29 0.29 0.0 0 1 215.72 65.66
  Z"
/>
</svg>
